<svg xmlns="http://www.w3.org/2000/svg" width="24" height="24" fill="none" viewBox="0 0 24 24" id="adobe">
  <path fill="#FF808C" d="M23.0001 1.96143H1.01074V22.0386H23.0001V1.96143Z"></path>
  <path fill="#FFBFC5" d="M1.01074 21.9869L21.0373 1.96143H1.01074V21.9869Z"></path>
  <path stroke="#191919" stroke-linecap="round" stroke-linejoin="round" d="M23.0001 1.96143H1.01074V22.0386H23.0001V1.96143Z"></path>
  <path fill="#E3E3E3" d="M11.9851 9.41001L17.7415 22.0386H22.9893L14.4048 1.96143H9.62458L1 22.0386H13.9172L11.9851 17.2583H8.31956L11.9851 9.41001Z"></path>
  <path fill="#fff" d="M10.5804 12.4178L11.9848 9.41001L12.4868 10.5114L16.3912 6.60686L14.4046 1.96143H9.62431L1.03027 21.9669L10.5804 12.4178Z"></path>
  <path stroke="#191919" stroke-linecap="round" stroke-linejoin="round" d="M11.9851 9.41001L17.7415 22.0386H22.9893L14.4048 1.96143H9.62458L1 22.0386H13.9172L11.9851 17.2583H8.31956L11.9851 9.41001Z"></path>
</svg>
